<?xml version="1.0" encoding="utf-8"?>
<!-- Generator: Adobe Illustrator 27.0.0, SVG Export Plug-In . SVG Version: 6.00 Build 0)  -->
<!DOCTYPE svg PUBLIC "-//W3C//DTD SVG 1.1//EN" "http://www.w3.org/Graphics/SVG/1.1/DTD/svg11.dtd" [
	<!ENTITY ns_extend "http://ns.adobe.com/Extensibility/1.0/">
	<!ENTITY ns_ai "http://ns.adobe.com/AdobeIllustrator/10.0/">
	<!ENTITY ns_graphs "http://ns.adobe.com/Graphs/1.0/">
	<!ENTITY ns_vars "http://ns.adobe.com/Variables/1.0/">
	<!ENTITY ns_imrep "http://ns.adobe.com/ImageReplacement/1.0/">
	<!ENTITY ns_sfw "http://ns.adobe.com/SaveForWeb/1.0/">
	<!ENTITY ns_custom "http://ns.adobe.com/GenericCustomNamespace/1.0/">
	<!ENTITY ns_adobe_xpath "http://ns.adobe.com/XPath/1.0/">
]>
<svg version="1.1" id="Layer_1" xmlns:x="&ns_extend;" xmlns:i="&ns_ai;" xmlns:graph="&ns_graphs;"
	 xmlns="http://www.w3.org/2000/svg" xmlns:xlink="http://www.w3.org/1999/xlink" x="0px" y="0px" viewBox="0 0 595.3 841.9"
	 style="enable-background:new 0 0 595.3 841.9;" xml:space="preserve">
<style type="text/css">
	.st0{fill:#E30613;}
	.st1{fill:none;stroke:#1D1D1B;stroke-width:3;stroke-miterlimit:10;}
	.st2{fill:url(#SVGID_1_);}
	.st3{opacity:0.6;fill:#009FE3;}
	.st4{fill:#FFFFFF;stroke:#000000;stroke-linecap:round;stroke-linejoin:round;}
	.st5{font-family:'MyriadPro-Regular';}
	.st6{font-size:24px;}
</style>
<switch>
	<foreignObject requiredExtensions="&ns_ai;" x="0" y="0" width="1" height="1">
		<i:aipgfRef  xlink:href="#adobe_illustrator_pgf">
		</i:aipgfRef>
	</foreignObject>
	<g i:extraneous="self">
		<rect x="50" y="50" class="st0" width="200" height="100"/>
		<circle class="st1" cx="300" cy="300" r="80"/>
		<linearGradient id="SVGID_1_" gradientUnits="userSpaceOnUse" x1="100" y1="400" x2="400" y2="400">
			<stop  offset="0" style="stop-color:#FFFFFF"/>
			<stop  offset="1" style="stop-color:#000000"/>
		</linearGradient>
		<path class="st2" d="M100,400c0-50,100-80,150-30s150,30,150-20v100H100V400z"/>
		<polygon class="st0" points="300,600 350,700 250,700 "/>
		<ellipse class="st3" cx="420" cy="620" rx="80" ry="40"/>
		<g>
			<path class="st4" d="M60.5,750.2c-12.3-8.1-15.6-24.6-7.5-36.9s24.6-15.6,36.9-7.5c12.3,8.1,15.6,24.6,7.5,36.9
				S72.8,758.3,60.5,750.2z M83.4,716.1c-6.5-4.3-15.2-2.5-19.5,4s-2.5,15.2,4,19.5s15.2,2.5,19.5-4S89.9,720.4,83.4,716.1z"/>
			<line class="st1" x1="150" y1="720" x2="500" y2="780"/>
			<polyline class="st1" points="150,800 250,760 350,800 450,760 	"/>
		</g>
		<text transform="matrix(1 0 0 1 60 820)" class="st5 st6">Illustrator text</text>
	</g>
</switch>
<i:pgf  id="adobe_illustrator_pgf">
	<![CDATA[
	eJzsvWuTHMd1IPq9I/o/1HyYG8QsWEZXa9oH8ZBEgxQlhUiJpCVr17EbQ3AGFGwAgxgMKFO//p53
	nqysbgxhWHHv3aWCYLsyKyufJ897G8zjTz8/fHT1+O3FV/X7lLVtfnLz5PLs98fXDP3yTq1f/7V
	]]>
</i:pgf>
</svg>
